%TF.GenerationSoftware,KiCad,Pcbnew,(6.0.7)*%
%TF.CreationDate,2022-11-15T15:07:51+01:00*%
%TF.ProjectId,tofncan,746f666e-6361-46e2-9e6b-696361645f70,rev?*%
%TF.SameCoordinates,Original*%
%TF.FileFunction,Paste,Top*%
%TF.FilePolarity,Positive*%
%FSLAX46Y46*%
G04 Gerber Fmt 4.6, Leading zero omitted, Abs format (unit mm)*
G04 Created by KiCad (PCBNEW (6.0.7)) date 2022-11-15 15:07:51*
%MOMM*%
%LPD*%
G01*
G04 APERTURE LIST*
G04 Aperture macros list*
%AMRoundRect*
0 Rectangle with rounded corners*
0 $1 Rounding radius*
0 $2 $3 $4 $5 $6 $7 $8 $9 X,Y pos of 4 corners*
0 Add a 4 corners polygon primitive as box body*
4,1,4,$2,$3,$4,$5,$6,$7,$8,$9,$2,$3,0*
0 Add four circle primitives for the rounded corners*
1,1,$1+$1,$2,$3*
1,1,$1+$1,$4,$5*
1,1,$1+$1,$6,$7*
1,1,$1+$1,$8,$9*
0 Add four rect primitives between the rounded corners*
20,1,$1+$1,$2,$3,$4,$5,0*
20,1,$1+$1,$4,$5,$6,$7,0*
20,1,$1+$1,$6,$7,$8,$9,0*
20,1,$1+$1,$8,$9,$2,$3,0*%
%AMFreePoly0*
4,1,6,0.450000,-0.800000,-0.450000,-0.800000,-0.450000,0.530000,-0.180000,0.800000,0.450000,0.800000,0.450000,-0.800000,0.450000,-0.800000,$1*%
G04 Aperture macros list end*
%ADD10RoundRect,0.135000X0.185000X-0.135000X0.185000X0.135000X-0.185000X0.135000X-0.185000X-0.135000X0*%
%ADD11RoundRect,0.150000X0.825000X0.150000X-0.825000X0.150000X-0.825000X-0.150000X0.825000X-0.150000X0*%
%ADD12RoundRect,0.140000X-0.170000X0.140000X-0.170000X-0.140000X0.170000X-0.140000X0.170000X0.140000X0*%
%ADD13RoundRect,0.150000X-0.150000X0.512500X-0.150000X-0.512500X0.150000X-0.512500X0.150000X0.512500X0*%
%ADD14R,0.500000X0.500000*%
%ADD15RoundRect,0.140000X-0.140000X-0.170000X0.140000X-0.170000X0.140000X0.170000X-0.140000X0.170000X0*%
%ADD16RoundRect,0.140000X0.140000X0.170000X-0.140000X0.170000X-0.140000X-0.170000X0.140000X-0.170000X0*%
%ADD17FreePoly0,270.000000*%
%ADD18R,0.250000X0.550000*%
%ADD19RoundRect,0.250000X0.250000X0.475000X-0.250000X0.475000X-0.250000X-0.475000X0.250000X-0.475000X0*%
%ADD20RoundRect,0.140000X0.170000X-0.140000X0.170000X0.140000X-0.170000X0.140000X-0.170000X-0.140000X0*%
%ADD21RoundRect,0.218750X-0.218750X-0.256250X0.218750X-0.256250X0.218750X0.256250X-0.218750X0.256250X0*%
%ADD22R,0.700000X1.600000*%
%ADD23RoundRect,0.135000X-0.135000X-0.185000X0.135000X-0.185000X0.135000X0.185000X-0.135000X0.185000X0*%
%ADD24R,0.500000X0.400000*%
%ADD25R,0.500000X0.300000*%
G04 APERTURE END LIST*
D10*
X91300000Y-100110000D03*
X91300000Y-99090000D03*
D11*
X97975000Y-101405000D03*
X97975000Y-100135000D03*
X97975000Y-98865000D03*
X97975000Y-97595000D03*
X93025000Y-97595000D03*
X93025000Y-98865000D03*
X93025000Y-100135000D03*
X93025000Y-101405000D03*
D10*
X101700000Y-100010000D03*
X101700000Y-98990000D03*
D12*
X100200000Y-98920000D03*
X100200000Y-99880000D03*
D13*
X106950000Y-98862500D03*
X106000000Y-98862500D03*
X105050000Y-98862500D03*
X105050000Y-101137500D03*
X106950000Y-101137500D03*
D10*
X93000000Y-103910000D03*
X93000000Y-102890000D03*
D12*
X103700000Y-99520000D03*
X103700000Y-100480000D03*
D14*
X101600000Y-105800000D03*
X100800000Y-105790000D03*
X100000000Y-105800000D03*
X99200000Y-105800000D03*
X98400000Y-105800000D03*
X98400000Y-105000000D03*
X98400000Y-104200000D03*
X99200000Y-104200000D03*
X100000000Y-104200000D03*
X100800000Y-104200000D03*
X101600000Y-104200000D03*
X101600000Y-105000000D03*
D15*
X99620000Y-92000000D03*
X100580000Y-92000000D03*
D16*
X101580000Y-107600000D03*
X100620000Y-107600000D03*
D12*
X103500000Y-104220000D03*
X103500000Y-105180000D03*
D17*
X95400000Y-104300000D03*
D18*
X96150000Y-103125000D03*
X95650000Y-103125000D03*
X95150000Y-103125000D03*
X94650000Y-103125000D03*
X94650000Y-105475000D03*
X95150000Y-105475000D03*
X95650000Y-105475000D03*
X96150000Y-105475000D03*
D16*
X95880000Y-106700000D03*
X94920000Y-106700000D03*
D19*
X106950000Y-96800000D03*
X105050000Y-96800000D03*
D20*
X108300000Y-100480000D03*
X108300000Y-99520000D03*
D21*
X101612500Y-97300000D03*
X103187500Y-97300000D03*
D10*
X102700000Y-100010000D03*
X102700000Y-98990000D03*
D22*
X101905000Y-93650000D03*
X100635000Y-93650000D03*
X99365000Y-93650000D03*
X98095000Y-93650000D03*
D23*
X98290000Y-107600000D03*
X99310000Y-107600000D03*
D19*
X106950000Y-103200000D03*
X105050000Y-103200000D03*
D24*
X101600000Y-101250000D03*
D25*
X101600000Y-101750000D03*
X101600000Y-102250000D03*
D24*
X101600000Y-102750000D03*
X102600000Y-102750000D03*
D25*
X102600000Y-102250000D03*
X102600000Y-101750000D03*
D24*
X102600000Y-101250000D03*
M02*
