%TF.GenerationSoftware,KiCad,Pcbnew,(6.0.7)*%
%TF.CreationDate,2022-11-15T15:07:51+01:00*%
%TF.ProjectId,tofncan,746f666e-6361-46e2-9e6b-696361645f70,rev?*%
%TF.SameCoordinates,Original*%
%TF.FileFunction,Legend,Top*%
%TF.FilePolarity,Positive*%
%FSLAX46Y46*%
G04 Gerber Fmt 4.6, Leading zero omitted, Abs format (unit mm)*
G04 Created by KiCad (PCBNEW (6.0.7)) date 2022-11-15 15:07:51*
%MOMM*%
%LPD*%
G01*
G04 APERTURE LIST*
G04 Aperture macros list*
%AMRoundRect*
0 Rectangle with rounded corners*
0 $1 Rounding radius*
0 $2 $3 $4 $5 $6 $7 $8 $9 X,Y pos of 4 corners*
0 Add a 4 corners polygon primitive as box body*
4,1,4,$2,$3,$4,$5,$6,$7,$8,$9,$2,$3,0*
0 Add four circle primitives for the rounded corners*
1,1,$1+$1,$2,$3*
1,1,$1+$1,$4,$5*
1,1,$1+$1,$6,$7*
1,1,$1+$1,$8,$9*
0 Add four rect primitives between the rounded corners*
20,1,$1+$1,$2,$3,$4,$5,0*
20,1,$1+$1,$4,$5,$6,$7,0*
20,1,$1+$1,$6,$7,$8,$9,0*
20,1,$1+$1,$8,$9,$2,$3,0*%
%AMFreePoly0*
4,1,6,0.500000,-0.850000,-0.500000,-0.850000,-0.500000,0.550000,-0.200000,0.850000,0.500000,0.850000,0.500000,-0.850000,0.500000,-0.850000,$1*%
G04 Aperture macros list end*
%ADD10C,0.120000*%
%ADD11C,0.150000*%
%ADD12RoundRect,0.135000X0.185000X-0.135000X0.185000X0.135000X-0.185000X0.135000X-0.185000X-0.135000X0*%
%ADD13RoundRect,0.150000X0.825000X0.150000X-0.825000X0.150000X-0.825000X-0.150000X0.825000X-0.150000X0*%
%ADD14RoundRect,0.140000X-0.170000X0.140000X-0.170000X-0.140000X0.170000X-0.140000X0.170000X0.140000X0*%
%ADD15RoundRect,0.150000X-0.150000X0.512500X-0.150000X-0.512500X0.150000X-0.512500X0.150000X0.512500X0*%
%ADD16R,0.500000X0.500000*%
%ADD17RoundRect,0.140000X-0.140000X-0.170000X0.140000X-0.170000X0.140000X0.170000X-0.140000X0.170000X0*%
%ADD18RoundRect,0.140000X0.140000X0.170000X-0.140000X0.170000X-0.140000X-0.170000X0.140000X-0.170000X0*%
%ADD19R,0.250000X0.550000*%
%ADD20FreePoly0,270.000000*%
%ADD21RoundRect,0.250000X0.250000X0.475000X-0.250000X0.475000X-0.250000X-0.475000X0.250000X-0.475000X0*%
%ADD22RoundRect,0.140000X0.170000X-0.140000X0.170000X0.140000X-0.170000X0.140000X-0.170000X-0.140000X0*%
%ADD23RoundRect,0.218750X-0.218750X-0.256250X0.218750X-0.256250X0.218750X0.256250X-0.218750X0.256250X0*%
%ADD24R,0.700000X1.600000*%
%ADD25RoundRect,0.135000X-0.135000X-0.185000X0.135000X-0.185000X0.135000X0.185000X-0.135000X0.185000X0*%
%ADD26R,0.500000X0.400000*%
%ADD27R,0.500000X0.300000*%
G04 APERTURE END LIST*
D10*
X91680000Y-99753641D02*
X91680000Y-99446359D01*
X90920000Y-99753641D02*
X90920000Y-99446359D01*
X95500000Y-96940000D02*
X97450000Y-96940000D01*
X95500000Y-96940000D02*
X93550000Y-96940000D01*
X95500000Y-102060000D02*
X93550000Y-102060000D01*
X95500000Y-102060000D02*
X98950000Y-102060000D01*
X102080000Y-99653641D02*
X102080000Y-99346359D01*
X101320000Y-99653641D02*
X101320000Y-99346359D01*
X99840000Y-99292164D02*
X99840000Y-99507836D01*
X100560000Y-99292164D02*
X100560000Y-99507836D01*
X104440000Y-100000000D02*
X104440000Y-99200000D01*
X104440000Y-100000000D02*
X104440000Y-100800000D01*
X107560000Y-100000000D02*
X107560000Y-100800000D01*
X107560000Y-100000000D02*
X107560000Y-98200000D01*
X93380000Y-103553641D02*
X93380000Y-103246359D01*
X92620000Y-103553641D02*
X92620000Y-103246359D01*
X103340000Y-99892164D02*
X103340000Y-100107836D01*
X104060000Y-99892164D02*
X104060000Y-100107836D01*
X97400000Y-104200000D02*
X97400000Y-103600000D01*
X102600000Y-106400000D02*
X102400000Y-106400000D01*
X98000000Y-106400000D02*
X97400000Y-106400000D01*
X102600000Y-103600000D02*
X102600000Y-104200000D01*
X97400000Y-103600000D02*
X98000000Y-103600000D01*
X102600000Y-106400000D02*
X102600000Y-105800000D01*
X102000000Y-103600000D02*
X102600000Y-103600000D01*
X97400000Y-106400000D02*
X97400000Y-105800000D01*
X99992164Y-91640000D02*
X100207836Y-91640000D01*
X99992164Y-92360000D02*
X100207836Y-92360000D01*
X101207836Y-107240000D02*
X100992164Y-107240000D01*
X101207836Y-107960000D02*
X100992164Y-107960000D01*
X103140000Y-104592164D02*
X103140000Y-104807836D01*
X103860000Y-104592164D02*
X103860000Y-104807836D01*
X93990000Y-103650000D02*
X93990000Y-104950000D01*
X96810000Y-103210000D02*
X96810000Y-104950000D01*
X95507836Y-106340000D02*
X95292164Y-106340000D01*
X95507836Y-107060000D02*
X95292164Y-107060000D01*
X106261252Y-97535000D02*
X105738748Y-97535000D01*
X106261252Y-96065000D02*
X105738748Y-96065000D01*
X108660000Y-100107836D02*
X108660000Y-99892164D01*
X107940000Y-100107836D02*
X107940000Y-99892164D01*
X100915000Y-98035000D02*
X103200000Y-98035000D01*
X100915000Y-96565000D02*
X100915000Y-98035000D01*
X103200000Y-96565000D02*
X100915000Y-96565000D01*
X102320000Y-99653641D02*
X102320000Y-99346359D01*
X103080000Y-99653641D02*
X103080000Y-99346359D01*
D11*
X103400000Y-96050000D02*
X103400000Y-95000000D01*
X96600000Y-93050000D02*
X96600000Y-94050000D01*
X102400000Y-96050000D02*
X103400000Y-96050000D01*
X96600000Y-93050000D02*
X97600000Y-93050000D01*
D10*
X98646359Y-107980000D02*
X98953641Y-107980000D01*
X98646359Y-107220000D02*
X98953641Y-107220000D01*
X106261252Y-103935000D02*
X105738748Y-103935000D01*
X106261252Y-102465000D02*
X105738748Y-102465000D01*
X102350000Y-103180000D02*
X101850000Y-103180000D01*
X102350000Y-100820000D02*
X101850000Y-100820000D01*
%LPC*%
D12*
X91300000Y-100110000D03*
X91300000Y-99090000D03*
D13*
X97975000Y-101405000D03*
X97975000Y-100135000D03*
X97975000Y-98865000D03*
X97975000Y-97595000D03*
X93025000Y-97595000D03*
X93025000Y-98865000D03*
X93025000Y-100135000D03*
X93025000Y-101405000D03*
D12*
X101700000Y-100010000D03*
X101700000Y-98990000D03*
D14*
X100200000Y-98920000D03*
X100200000Y-99880000D03*
D15*
X106950000Y-98862500D03*
X106000000Y-98862500D03*
X105050000Y-98862500D03*
X105050000Y-101137500D03*
X106950000Y-101137500D03*
D12*
X93000000Y-103910000D03*
X93000000Y-102890000D03*
D14*
X103700000Y-99520000D03*
X103700000Y-100480000D03*
D16*
X101600000Y-105800000D03*
X100800000Y-105790000D03*
X100000000Y-105800000D03*
X99200000Y-105800000D03*
X98400000Y-105800000D03*
X98400000Y-105000000D03*
X98400000Y-104200000D03*
X99200000Y-104200000D03*
X100000000Y-104200000D03*
X100800000Y-104200000D03*
X101600000Y-104200000D03*
X101600000Y-105000000D03*
D17*
X99620000Y-92000000D03*
X100580000Y-92000000D03*
D18*
X101580000Y-107600000D03*
X100620000Y-107600000D03*
D14*
X103500000Y-104220000D03*
X103500000Y-105180000D03*
D19*
X96150000Y-103125000D03*
X95650000Y-103125000D03*
X95150000Y-103125000D03*
X94650000Y-103125000D03*
X94650000Y-105475000D03*
X95150000Y-105475000D03*
X95650000Y-105475000D03*
X96150000Y-105475000D03*
D20*
X95400000Y-104300000D03*
D18*
X95880000Y-106700000D03*
X94920000Y-106700000D03*
D21*
X106950000Y-96800000D03*
X105050000Y-96800000D03*
D22*
X108300000Y-100480000D03*
X108300000Y-99520000D03*
D23*
X101612500Y-97300000D03*
X103187500Y-97300000D03*
D12*
X102700000Y-100010000D03*
X102700000Y-98990000D03*
D24*
X101905000Y-93650000D03*
X100635000Y-93650000D03*
X99365000Y-93650000D03*
X98095000Y-93650000D03*
D25*
X98290000Y-107600000D03*
X99310000Y-107600000D03*
D21*
X106950000Y-103200000D03*
X105050000Y-103200000D03*
D26*
X101600000Y-101250000D03*
D27*
X101600000Y-101750000D03*
X101600000Y-102250000D03*
D26*
X101600000Y-102750000D03*
X102600000Y-102750000D03*
D27*
X102600000Y-102250000D03*
X102600000Y-101750000D03*
D26*
X102600000Y-101250000D03*
M02*
