%TF.GenerationSoftware,KiCad,Pcbnew,(6.0.7)*%
%TF.CreationDate,2022-11-15T15:08:39+01:00*%
%TF.ProjectId,tofncan,746f666e-6361-46e2-9e6b-696361645f70,rev?*%
%TF.SameCoordinates,Original*%
%TF.FileFunction,Drillmap*%
%TF.FilePolarity,Positive*%
%FSLAX45Y45*%
G04 Gerber Fmt 4.5, Leading zero omitted, Abs format (unit mm)*
G04 Created by KiCad (PCBNEW (6.0.7)) date 2022-11-15 15:08:39*
%MOMM*%
%LPD*%
G01*
G04 APERTURE LIST*
%ADD10C,0.100000*%
%ADD11C,0.200000*%
G04 APERTURE END LIST*
D10*
X10950000Y-10050000D02*
X11000000Y-10050000D01*
X11000000Y-9950000D02*
G75*
G03*
X9000000Y-9950000I-1000000J-50000D01*
G01*
X9000000Y-10050000D02*
G75*
G03*
X11000000Y-10050000I1000000J50000D01*
G01*
X11000000Y-9950000D02*
X10950000Y-9950000D01*
X9050000Y-10050000D02*
X9000000Y-10050000D01*
X10950000Y-9950000D02*
X10950000Y-10050000D01*
X9050000Y-9950000D02*
X9050000Y-10050000D01*
X9000000Y-9950000D02*
X9050000Y-9950000D01*
D11*
X9252619Y-11316725D02*
X9252619Y-11116725D01*
X9300238Y-11116725D01*
X9328810Y-11126249D01*
X9347857Y-11145297D01*
X9357381Y-11164344D01*
X9366905Y-11202440D01*
X9366905Y-11231011D01*
X9357381Y-11269106D01*
X9347857Y-11288154D01*
X9328810Y-11307201D01*
X9300238Y-11316725D01*
X9252619Y-11316725D01*
X9452619Y-11316725D02*
X9452619Y-11183392D01*
X9452619Y-11221487D02*
X9462143Y-11202440D01*
X9471667Y-11192916D01*
X9490714Y-11183392D01*
X9509762Y-11183392D01*
X9576429Y-11316725D02*
X9576429Y-11183392D01*
X9576429Y-11116725D02*
X9566905Y-11126249D01*
X9576429Y-11135773D01*
X9585952Y-11126249D01*
X9576429Y-11116725D01*
X9576429Y-11135773D01*
X9700238Y-11316725D02*
X9681190Y-11307201D01*
X9671667Y-11288154D01*
X9671667Y-11116725D01*
X9805000Y-11316725D02*
X9785952Y-11307201D01*
X9776429Y-11288154D01*
X9776429Y-11116725D01*
X10033571Y-11316725D02*
X10033571Y-11116725D01*
X10100238Y-11259582D01*
X10166905Y-11116725D01*
X10166905Y-11316725D01*
X10347857Y-11316725D02*
X10347857Y-11211963D01*
X10338333Y-11192916D01*
X10319286Y-11183392D01*
X10281190Y-11183392D01*
X10262143Y-11192916D01*
X10347857Y-11307201D02*
X10328810Y-11316725D01*
X10281190Y-11316725D01*
X10262143Y-11307201D01*
X10252619Y-11288154D01*
X10252619Y-11269106D01*
X10262143Y-11250059D01*
X10281190Y-11240535D01*
X10328810Y-11240535D01*
X10347857Y-11231011D01*
X10443095Y-11183392D02*
X10443095Y-11383392D01*
X10443095Y-11192916D02*
X10462143Y-11183392D01*
X10500238Y-11183392D01*
X10519286Y-11192916D01*
X10528810Y-11202440D01*
X10538333Y-11221487D01*
X10538333Y-11278630D01*
X10528810Y-11297678D01*
X10519286Y-11307201D01*
X10500238Y-11316725D01*
X10462143Y-11316725D01*
X10443095Y-11307201D01*
X10624048Y-11297678D02*
X10633571Y-11307201D01*
X10624048Y-11316725D01*
X10614524Y-11307201D01*
X10624048Y-11297678D01*
X10624048Y-11316725D01*
X10624048Y-11192916D02*
X10633571Y-11202440D01*
X10624048Y-11211963D01*
X10614524Y-11202440D01*
X10624048Y-11192916D01*
X10624048Y-11211963D01*
M02*
