M48
; DRILL file {KiCad (6.0.7)} date Tue 15 Nov 2022 03:08:24 PM CET
; FORMAT={-:-/ absolute / metric / decimal}
; #@! TF.CreationDate,2022-11-15T15:08:24+01:00
; #@! TF.GenerationSoftware,Kicad,Pcbnew,(6.0.7)
; #@! TF.FileFunction,Plated,1,4,PTH
FMAT,2
METRIC
; #@! TA.AperFunction,Plated,PTH,ViaDrill
T1C0.300
%
G90
G05
T1
X91.9Y-96.8
X94.0Y-106.7
X94.288Y-99.534
X94.8Y-96.9
X95.5Y-107.7
X95.619Y-101.036
X96.6Y-107.7
X96.7Y-105.0
X97.206Y-96.606
X97.62Y-106.62
X98.1Y-103.0
X98.5Y-90.8
X99.0Y-103.2
X99.1Y-95.2
X99.2Y-108.8
X99.3Y-106.7
X99.423Y-98.893
X99.5Y-90.8
X100.0Y-95.1
X100.078Y-103.408
X100.25Y-106.85
X100.285Y-100.779
X100.5Y-90.8
X100.828Y-103.408
X100.923Y-100.386
X100.999Y-95.185
X101.539Y-95.757
X101.6Y-106.7
X101.7Y-98.3
X101.7Y-103.4
X102.5Y-104.2
X102.594Y-92.306
X102.6Y-103.5
X103.3Y-91.2
X103.6Y-98.5
X103.6Y-101.4
X104.1Y-94.7
X104.3Y-91.9
X104.3Y-93.2
X104.9Y-95.6
X106.9Y-105.1
X108.1Y-104.3
X108.3Y-103.3
X108.9Y-102.0
T0
M30
